# xmcd
#
# Track frame offsets:
#	150
#	15768
#	35178
#	52822
#	74536
#	95284
#	114513
#	135233
#	154593
#	172599
#	188217
#	207627
#	225271
#	246985
#	267733
#	286962
#	307682
#	327042
#
# Disc length: 4602
#
# Revision: 1
# Processed by: cddbd v1.5.1PL2 Copyright (c) Steve Scherf et al.
# Submitted via: kTunes Pro (development) 1.0patch41
#
DISCID=e711f812
DTITLE=Various Artist - PHU0511
DYEAR=2005
DGENRE=Hip Hop
TTITLE0=Bow Wow - Ciara - Like You
TTITLE1=T-Pain - I'm Sprung
TTITLE2=Kanye West - Gold Digger
TTITLE3=Kem - Find Your Way
TTITLE4=Alicia Keys - Unbreakable (MTV Live)
TTITLE5=Keyshia Cole - I Should Have Cheated
TTITLE6=Amerie - Talkin' About
TTITLE7=Pretty Ricky - Your Body
TTITLE8=P$C - T.I. - Lil Scrappy - I'm A King
TTITLE9=Bow Wow - Ciara - Like You (multiplex)
TTITLE10=T-Pain - I'm Sprung (multiplex)
TTITLE11=Kanye West - Gold Digger (multiplex)
TTITLE12=Kem - Find Your Way (multiplex)
TTITLE13=Alicia Keys - Unbreakable  (multiplex)
TTITLE14=Keyshia Cole - I Should Have Cheated (multiplex)
TTITLE15=Amerie - Talkin' About (multiplex)
TTITLE16=Pretty Ricky - Your Body (multiplex)
TTITLE17=P$C - T.I. - Lil Scrappy - I'm A King (multiplex)
EXTD=
EXTT0=
EXTT1=
EXTT2=
EXTT3=
EXTT4=
EXTT5=
EXTT6=
EXTT7=
EXTT8=
EXTT9=
EXTT10=
EXTT11=
EXTT12=
EXTT13=
EXTT14=
EXTT15=
EXTT16=
EXTT17=
PLAYORDER=
